<svg width="24" height="24" viewBox="0 0 24 24" fill="none" xmlns="http://www.w3.org/2000/svg">
<path fill-rule="evenodd" clip-rule="evenodd" d="M12 13.9393L8.53033 10.4696C8.23744 10.1768 7.76256 10.1768 7.46967 10.4696C7.17678 10.7625 7.17678 11.2374 7.46967 11.5303L11.399 15.4596C11.7309 15.7915 12.2691 15.7915 12.601 15.4596L16.5303 11.5303C16.8232 11.2374 16.8232 10.7625 16.5303 10.4696C16.2374 10.1768 15.7626 10.1768 15.4697 10.4696L12 13.9393Z" fill="#222222"/>
<path fill-rule="evenodd" clip-rule="evenodd" d="M12 14.75C11.5858 14.75 11.25 14.4142 11.25 14L11.25 2C11.25 1.58579 11.5858 1.25 12 1.25C12.4142 1.25 12.75 1.58579 12.75 2L12.75 14C12.75 14.4142 12.4142 14.75 12 14.75Z" fill="#222222"/>
<path fill-rule="evenodd" clip-rule="evenodd" d="M2.5 14.25C2.91421 14.25 3.25 14.5858 3.25 15V19.25H20.75V15.5C20.75 15.0858 21.0858 14.75 21.5 14.75C21.9142 14.75 22.25 15.0858 22.25 15.5V19.9C22.25 20.3694 21.8694 20.75 21.4 20.75H2.6C2.13056 20.75 1.75 20.3694 1.75 19.9V15C1.75 14.5858 2.08579 14.25 2.5 14.25Z" fill="#222222"/>
</svg>
